<?xml version="1.0" standalone="no"?>
<svg xmlns="http://www.w3.org/2000/svg" height="1920pt" preserveAspectRatio="xMidYMid meet" viewBox="0 0 212 1920" width="212pt">
  <path d="m966 19098c-4-57-24-562-46-1123s-43-1073-46-1137l-7-118h-38-39v-130-130h35 35v-75-75h-95-95v-135-135h85 85v-57c0-32-9-274-20-538-10-264-20-514-21-555s-4-81-7-87c-3-9-25-13-63-13h-59v-105-105h58 57l-20-507-20-508-37 3-38 4v-136-136h30c25 0 30-4 30-25v-25h-210-210v-130-130h-120-120v-260c0-224 2-260 15-260 12 0 15-18 15-100 0-55 1-103 3-107 1-5-22-9-51-11l-52-3v-75-74h50c47 0 50-2 50-25 0-16-6-25-15-25-11 0-15-12-15-50v-50h105 105v-55-55h-113c-155 0-152 3-152-180 0-122 2-140 19-159 19-21 26-21 347-21 180 0 330-3 332-7 2-5-8-231-24-503-33-587-86-1526-214-3820-52-932-111-1987-131-2345-20-357-89-1584-153-2725l-116-2075 919-3c506-1 922 0 925 4 3 3-95 1916-218 4252-259 4929-266 5055-325 6212-25 481-48 905-51 943l-5 67h343c320 0 345 1 360 18 14 16 17 43 17 164 0 179 1 178-117 178h-81l-4 51c-1 28-1 53 1 55s49 4 103 4h98v50c0 38-4 50-15 50-9 0-15 9-15 25 0 24 3 25 55 25h55v74 75l-52 3-53 3-3 103c-2 85 0 103 13 108s15 41 15 265v259h-145-145v130 130h-209-209l-4 25c-5 23-2 25 29 25h34l-3 133-3 132-35 1h-35l-16 405c-10 222-19 450-20 507l-4 102h88 87v105 105h-90c-64 0-92 4-94 13-3 10-24 527-43 1065l-6 172h56 57v135 135h-65-65v75 75h35 35v130 130h-39-39l-6 93c-4 50-11 216-16 367s-12 329-15 395c-5 101-65 1605-65 1620 0 3-27 5-59 5h-59z" transform="matrix(.1 0 0 -.1 0 1920)" fill="#000000" stroke="none" stroke-width="2" vector-effect="non-scaling-stroke"/>
</svg>
