<?xml version="1.0" encoding="utf-8"?>
<svg viewBox="995.2999267578125 189.4998321533203 332.8004150390625 272.00006103515625" width="332.8004150390625" height="272.00006103515625" xmlns="http://www.w3.org/2000/svg"><path class="st1" d="M1275.7,336.3c-1.4,1.2-2.7,2.5-4.4,3.9c8.6,10.5,20.5,3,33.2,6.6c-9.7,5.2-18.4,8.3-26.6,5.8&#10;&#9;&#9;c-7.2-2.2-13.3-8.4-19.5-12.7c0.6,4,1,10.1,2.6,16c2.9,10.8-2.7,18.9-8.1,26.7c-4.1,6-14.6,4.3-18.2-2.1c-1.4-2.5-3-5-5-7&#10;&#9;&#9;c-3.7-3.7-5-7.3-2.7-12.5c0.9-2.1-0.5-7.5-1.6-7.7c-16.8-3.3-19.8-20.6-30.8-28.9c-0.4,1-1.7,4.3-1.9,4.3c-4.6-1.3-5.3,2.6-9.5,0.3&#10;&#9;&#9;c-0.8-0.5-5.7,14.3-10.1,9.6c-6.2,16.6-6-4.3-11.6,11.8c-1.4,4-0.5,8.6-0.9,13c-0.5,6.4-0.3,12.9-2,19c-4.2,15.5-2.7,30.8,0.7,46&#10;&#9;&#9;c0.6,2.9,3.9,5.5,6.4,7.8c3.3,3.1,7,5.9,11.2,9.3c-12.6,11-20.7-3-30.2-3.6c-1.4-32.2-2.8-64.5-4.2-96.7c-0.8-0.3-1.6-0.5-2.4-0.8&#10;&#9;&#9;c-2.7,5.8-5.2,11.7-8,17.4c-4.3,8.6-9.5,16.7-13.3,25.5c-5.4,12.5-10.8,25.1-14.4,38.2c-1.4,5.1,1.7,11.5,3.1,17.2&#10;&#9;&#9;c0.9,3.6,2.5,7,4.6,12.5c-6.8-1.7-12.8-1.7-16.6-4.6c-4-3.1-5.9-8.9-8.7-13.6c-1,0.1-1.9,0.2-2.9,0.3c2.1-5.3,3.6-10.9,6.3-15.8&#10;&#9;&#9;c13.7-25.2,21-52.6,27.2-80.3c0.5-2.2,0.4-4.6,0.7-8.2c-6.5,0.9-12.5,2.2-18.4,2.3c-10.4,0.1-20.7-0.9-31.1-1c-2.6,0-6,1.1-7.7,2.9&#10;&#9;&#9;c-22.7,23.8-20.3,52.3-12.5,80.5c3.6,13.3,11.7,25.4,18.2,39.1c-4,4.7-16.6,4-20.6-3.7c-2.2-4.3-3.2-9.4-4.2-14.2&#10;&#9;&#9;c-3.2-15.1-6.2-30.2-10.9-45.3c-9.8,18.1-27.6,33.9-12.3,57.3c-7.7,3.8-13.4,0.9-17.4-4.1c-3.9-4.8-5.9-9.9-2.3-17.2&#10;&#9;&#9;c7-14.4,12.1-29.7,17.9-44.6c3.9-10,8.8-19.8,11.5-30.1c1.7-6.4,1.2-14-0.5-20.5c-3.9-15.3-8.8-30.3-13.7-45.3&#10;&#9;&#9;c-3.9-12.1-2.1-22.5,7.5-31.1c5.2-4.7,10-10.2,16-13.6c5.3-2.9,12.3-5.3,17.9-4.4c26.8,4.5,50.3-3.4,70-20.1&#10;&#9;&#9;c16.9-14.4,47.4-14.3,63.8-3.4c20.7,13.8,39.2,29.6,52.9,50.5c1.8,2.7,3.8,5.2,5.8,7.7c0.5,0.6,1.3,1.1,4.5,3.6&#10;&#9;&#9;c0-12.9,0-23.7,0-34.5c0.7-0.2,1.4-0.3,2.2-0.5c3.6,4.1,7.2,8.3,10.8,12.4c0.7-0.3,1.4-0.7,2.1-1c-9.3-25.6,13.4-41.1,17.1-62.6&#10;&#9;&#9;c0.7,0.1,1.4,0.1,2.2,0.2c0.5,1.2,1.2,2.3,1.5,3.5c0.3,1.4,0.2,2.8,0.4,6.1c2.3-5.2,3.8-8.8,5.4-12.4c0.7,0,1.4,0,2.1,0.1&#10;&#9;&#9;c0.4,4.3,0.9,8.6,1.4,13.3c1.8,0,3.9,0,6.8,0c-1,3-1.8,5.4-2.8,8.4c2.2,0.3,4.2,0.5,7,0.8c-1.9,4-3.6,7.7-6.1,12.9&#10;&#9;&#9;c4.6-1.2,7.4-1.9,11.3-2.9c-2.7,6.1-5,11.1-8.1,18.1c7.2-1,12.1-1.7,19.4-2.7c-6.9,6.8-12.3,12.2-17.7,17.5&#10;&#9;&#9;c0.4,0.8,0.9,1.6,1.3,2.4c6.1,0,12.2,0,18.3,0c0.3,0.8,0.7,1.5,1,2.3c-9.1,5.6-22.1,6.8-24.3,20.8c3.3,0.9,7.4,2.1,11.5,3.2&#10;&#9;&#9;c0,0.8-0.1,1.5-0.1,2.3c-3.8,0.6-7.8,0.6-11.3,2c-2.9,1.2-5.2,4-7.7,6.1c1.9,2.3,3.4,5.7,5.9,6.6c4.5,1.7,9.5,2,14.4,2.6&#10;&#9;&#9;c3.6,0.5,7.2,0.6,10.8,1.9c-14.7,10.5-29.9,2.2-44.9,0.8c-0.5,0.7-1,1.4-1.5,2.1c2.4,3,4.8,6,7.5,9.6c-1.1,5.3-10.9-2.9-11.3-6.3&#10;&#9;&#9;c-4.9,1.1-8.5,1.8-13.9,3c4.3,3.4,7.9,6.1,12.1,9.4c-2.1,1.3-3.9,2.4-4.8,2.9c2,3.3,3.9,6.4,5.8,9.6L1275.7,336.3z" style="fill-rule: evenodd; clip-rule: evenodd; fill: rgb(204, 204, 204); opacity: 1;" transform="matrix(1, 0, 0, 1, 0, 0)"/></svg>