<?xml version="1.0" encoding="utf-8"?>
<!-- Generator: Adobe Illustrator 27.5.0, SVG Export Plug-In . SVG Version: 6.00 Build 0)  -->
<svg version="1.1" id="Layer_1" xmlns="http://www.w3.org/2000/svg" xmlns:xlink="http://www.w3.org/1999/xlink" x="0px" y="0px"
	 viewBox="0 0 600 600" style="enable-background:new 0 0 600 600;" xml:space="preserve">
<g>
	<path d="M18.656,487.505c3.002,3,24.614,8.556,24.614,8.556c66.042,20.412,349.109,68.89,374.476,73.24
		c25.364,4.356,41.422,2.856,41.422,2.856s77.445,14.256,96.962,15.306c19.509,1.056,32.417-13.056,26.715-22.962
		c-5.706-9.905-19.811-9.455-32.12-7.952c-12.306,1.497-20.111,3-25.964,3c-5.855,0-42.025-5.854-42.025-5.854
		c-2.55-17.261-19.064-14.261-30.322-12.308c-11.256,1.952-21.006,3.452-27.912,3.452c-6.908,0-45.73-5.453-45.73-5.453
		s0.801-1.602,0.801-5.103c0-3.501-1.403-4.904-4.604-8.606c-3.201-3.701-8.301-6.003-12.301-8.304
		c-4.007-2.298-4.508-5.073-4.508-5.073c-0.801-1.902,0-1.331,0.699-2.03c0.704-0.702,2.304-1.602,3.306-3.702
		c0.996-2.105,0.699-2.502,3.6-5.505c2.904-3.002,2.304-3.398,6.204-8.906c3.902-5.502,12.006-13.809,19.013-19.91
		c7-6.104,10.605-13.61,13.407-16.514c2.802-2.898,2.001-4.798,6.003-8.602c4.002-3.801,6.806-10.008,14.711-19.211
		c7.901-9.207,15.807-20.514,20.612-26.414c4.806-5.904,7.703-9.81,9.704-18.213c2.004-8.405-0.099-9.506-12.005-31.321
		c-11.907-21.813-12.81-18.81-14.511-20.711c-1.703-1.899-1.901-2.802-2.502-4.603c-0.6-1.803-2.202-2.502-3.702-3.3
		c-1.5-0.804-3.303-2.202-5.105-3.204c-1.8-1.001-1.8-1.602-1.698-2.802c0.097-1.199,2.299-4.901,3.204-7.004
		c0.897-2.104,1.797-1,4.797-2.403c3.006-1.398,1.206-3.3,1.506-5.4c0.3-2.103,2.4-3.304,5.901-7.505
		c3.503-4.206,1.805-12.607,1.805-15.709c0-3.104,1.5-6.003,3.001-9.407c1.5-3.4,3.2-8.904,3.902-13.407
		c0.696-4.501,5.199-6.904,8.202-10.308c3.003-3.402,3.902-6.304,3.902-8.503c0-2.205,2.8-5.806,5.403-5.806
		c2.6,0,1.703,3.004,1.703,4.804c0,1.801,1.197,3.603,0.897,6.003c-0.3,2.403,1.506,6.604,1.701,11.509
		c0.201,4.904,1.203,4.701,2.004,7.103c0.801,2.402,0.999,6.404,0.899,8.705c-0.099,2.302,1.096,5.803,2.403,8.405
		c1.299,2.603,1.197,3.302,1.601,6.904c0.397,3.602,4.002,5.202,6.601,6.704c2.603,1.501,4.205,5.704,6.107,7.504
		c1.898,1.803,5.1,6.403,6.801,10.108c1.701,3.701,3.702,3.701,5.805,5.802c2.1,2.103,4.002,4.602,4.703,5.705
		c0.699,1.099-1.7,1.902-2.9,2.599c-1.203,0.702-1.403,4.806-0.3,9.309c1.101,4.5,1.194,3,1.5,5.504
		c0.3,2.502-0.504,3.396-0.402,3.799c0.097,0.401,1.401-0.1,1.6-3c0.203-2.901-1.701-5.901-2.596-10.005
		c-0.903-4.107,4.5-6.605,5.7-5.403c1.2,1.2,0.897,2.001,1.101,3.9c0.201,1.902,0.501,1.602,2.001,2.502s2.697,2.703,3.702,4.503
		c0.999,1.803,1.998,3.003,4.101,4.101c2.104,1.104,3.104,2.304,4.404,4.803c1.302,2.502,4.904-0.999,5.805-0.2
		c0.897,0.804,0.597,6.807,1.098,8.705c0.504,1.902,0.601,2.505,1.203,4.607c0.597,2.101,1.998,3.9,5.604,5.299
		c3.598,1.4,7.905,0.804,12.306-0.498c4.404-1.303,3.1-2.101,6.204-3.501c3.102-1.401,4.703-5.205,5.004-7.209
		c0.3-1.998,1.898-2.796,3.603-5.7c1.698-2.903,2.001-8.105,1.901-11.909c-0.102-3.798-2.604-5.502-4.904-7.101
		c-2.301-1.6-5.202-4.005-7.005-5.205c-1.803-1.2,0.204-2.7,0-3.702c-0.203-1.002-1.302-1.698-2.199-1.901
		c-0.902-0.198-1.004,0.6-0.398,1.5c0.6,0.9-0.606,2.802-0.606,2.802s-3.9-0.097-6.301-0.6c-2.402-0.499-0.804-1.6-1.101-3
		c-0.3-1.401-1.698-1.104-2.403-1.6c-0.704-0.501-1.5-2.703-2.402-4.305c-0.898-1.601-4.2-3.804-5.304-4.203
		c-1.099-0.398-0.396-1.4-0.396-2.502c0-1.101-0.899-1.202-2.204-2.402c-1.3-1.2,0.099-3-0.301-6.4
		c-0.398-3.403-5.9-9.81-6.902-10.909c-1.002-1.1-0.798-5.604-2.301-10.504c-1.503-4.905-3.402-4.304-4.902-8.107
		c-1.5-3.801,1.099-7.003,2.098-16.61c1.004-9.606-1.299-19.211-1.6-21.814c-0.3-2.6-0.498-4.302,1.503-8.904
		c2.001-4.605,3.201-11.208,3-13.909c-0.198-2.704-0.3-3.502,0.501-5.602c0.804-2.102,2.703-3.904,3.602-6.904
		c0.9-3.004,0.1-8.906,0.402-12.109c0.297-3.201,0.099-6.473,0.099-6.473c0.198-1.2,0.898-3.531-0.902-12.038
		c-1.8-8.506-10.806-15.206-14.408-18.11c-3.603-2.902,1.002-1.098,2.702-1.803c1.701-0.699,2.101-2.7,1.801-4.602
		c-0.298-1.899,0.3-2.199,2.804-5.604c2.5-3.4,1.195-5.803,0.298-8.103c-0.9-2.301,1.901-0.901,3.801-2.403
		c1.902-1.498,3.404-3.601,3.807-5.704c0.396-2.097-0.402-2.802,0.598-3.501c1.004-0.7,0.203-0.999,0.102-1.5
		c-0.102-0.499,0.102-1.003,1.296-1.302c1.206-0.299,1.206-1.899,2.304-4.5c1.103-2.605,2.202-3.003,3.303-3.604
		c1.102-0.601,1.5-0.9,2.703-2.001c1.197-1.102,1.797,0.299,2.301,1.203c0.498,0.897,0.598,0.999,2.098,1.298
		c1.503,0.302,2.105-3.2,2.105-3.2c8.604-9.708,10.308-22.065,10.308-22.065s0,0,1.197-1.349c1.2-1.353-0.598-2.403-1.803-3.754
		c-1.195-1.35,1.205-1.201,2.255-2.251c1.05-1.049,1.353-2.852,1.353-4.051c0-1.203,1.647-9.006-5.858-25.366
		c-7.503-16.36-21.611-22.661-31.218-24.617c-9.607-1.951-22.363,0.901-33.322,5.254c-10.955,4.352-12.605,9.905-13.958,13.058
		c-1.351,3.151-1.5,1.651-2.55,2.102c-1.051,0.45-3.15,6.603-4.806,11.256c-1.645,4.655,1.355,5.404,1.355,5.404
		s-0.601,1.653-1.953,5.703c-1.353,4.051,0.147,8.557,0,11.257c-0.15,2.702-2.547-0.9-4.353-3.301c-1.8-2.403-1.947,0-1.947,0
		s-2.854,0.748-9.461,1.801c-6.601,1.051-3.751,2.55-5.403,4.804c-1.65,2.251-3.303,2.55-9.605,7.504
		c-6.303,4.953-1.953,11.104-1.953,11.554c0,0-2.847,0.303-6.452-0.45c-3.601-0.751-15.307,0.303-21.912,0.602
		c-6.605,0.3-14.708,5.254-20.411,9.304c-5.7,4.054-3.3,2.553-15.611,7.206c-12.306,4.651-15.911,15.459-18.009,19.66
		c-2.1,4.204-3.305,3.905-8.107,9.458c-4.801,5.553-3.9,10.206-6.45,22.662c-2.553,12.46,5.402,11.559,8.705,15.761
		c3.303,4.202,1.048,3.003,0.75,7.953c-0.3,4.954-6.756,4.353-9.309,6.305c-2.547,1.95-2.699,6.904-4.047,11.856
		c-1.355,4.954-2.708,2.704-7.961,5.554c-5.253,2.851-2.848,3.601-6.598,9.757c-3.756,6.153-4.955,3.603-6.756,8.403
		c-1.802,4.803-1.652,7.807-5.105,12.61c-3.453,4.8-4.203,13.957-5.703,18.76c-1.502,4.803-0.15,4.955,0.153,7.656
		c0.294,2.701,0.597,5.554-2.556,12.907c-3.15,7.355-0.603,9.755,1.053,19.514c1.65,9.752,7.053,23.113,7.503,30.316
		c0.453,7.203,3.155,9.459,5.253,12.608c2.098,3.15,0.45,4.351-0.598,12.159c-1.053,7.803,0.45,12.455,1.95,16.358
		c1.5,3.899,0.147,4.803-3.153,4.955c-3.303,0.147-10.208,3.3-16.511,4.65c-6.3,1.35-6,3.902-10.058,6.756
		c-4.05,2.853-5.55,5.25-9,10.655c-3.453,5.4-8.105,5.4-12.761,9.456c-4.65,4.053-10.806,10.808-17.256,15.161
		c-6.458,4.35-9.606,6.45-14.111,12.003c-4.505,5.553-13.511,11.258-19.211,16.211c-5.705,4.953,1.35,10.655,1.8,11.708
		c0.45,1.051-3.153,2.7-4.2,3c-1.053,0.301-8.706,4.506-11.258,10.956c-2.556,6.456-6.603,12.161-7.358,13.509
		c-0.747,1.353-0.297-0.903-0.747-4.653c-0.45-3.753-2.1-5.85-6.453-11.855c-4.355-6.006-3.297-2.853-5.25-0.75
		c-1.953,2.1-1.953,5.7-0.755,7.655c1.203,1.95-3.6,7.2-3.903,8.556c-0.297,1.348-3.15,1.65-5.25,2.851
		c-2.1,1.2-3.153,1.05-6.306,2.1c-3.15,1.053-4.803,4.803-4.803,4.803s-17.561-5.253-27.464-7.503
		c-9.908-2.25-12.161-1.05-11.708,2.851c0.45,3.902,4.953,6.902,5.406,7.355c0.447,0.45-70.993-16.061-81.051-18.762
		c-10.056-2.699-15.311-3.149-17.411-1.199C13.253,479.699,15.653,484.503,18.656,487.505z M502.948,79.809
		c0.198-4.404,3.804-13.108,7.002-14.107c3.201-1.002,14.711,0.4,23.111,3.3c8.408,2.902,12.616,3.635,12.51,5.005
		c0,0-0.097,11.105-10.107,23.111c0,0-1.197-0.198,0-3.101c1.205-2.904,0.303-5.302-1-5.904c-1.302-0.599-2.402,0.399-5.802,2.802
		c-3.404,2.403-6.404,5.403-12.008,2.802C511.051,91.114,502.75,84.213,502.948,79.809z M277.609,468.643
		c2.904-2.202,10.809-10.008,12.309-11.808c1.502-1.801,12.11-5.805,16.01-9.204c3.9-3.402,13.311-9.306,16.011-13.509
		c2.7-4.202,4.101-4.904,9.707-7.806c5.602-2.9,10.79-7.326,11.208-7.604c12.549-8.304,2.7,1.302-2.508,5.904
		c-5.199,4.602-10.505,13.607-15.707,17.213c-5.202,3.6-9.405,9.401-13.206,14.507c-3.801,5.101-8.603,8.806-11.408,10.807
		c-2.802,1.998-1.103,3.503-1.103,5.702c0,2.199-10.404,7.203-12.903,8.505c-2.502,1.302-5.306,3.102-8.006,5.703
		c-2.703,2.604-2.4-0.399-2.502-3.399c-0.099-3.006-1.104-4.403-3.099-5.205c-2.001-0.801-4.004,0.1-4.602-1.898
		C267.208,474.546,274.711,470.844,277.609,468.643z"/>
	<path d="M71.937,357.826l17.521-10.302c-1.8-3.793-3.005-7.302-3.434-9.836c1.746,1.516,3.313,2.333,3.769,1.88
		c0.565-0.552-0.753-2.794-2.936-5.006c-0.182-0.19-0.364-0.367-0.552-0.544c0.083-0.097,0.188-0.18,0.294-0.235
		c1.68-0.871,5.684,3.436,9.383,9.902L314.039,215.44l0.595-0.35v7.354c0,0-156.674,90.038-216.85,124.625
		c3.622,7.307,5.108,13.768,3.319,14.694c-1.768,0.919-6.094-3.881-9.938-10.891c-10.117,5.817-16.241,9.343-16.524,9.503
		c-1.8,1.053-4.503,1.503-5.703,1.503C67.734,361.879,71.937,357.826,71.937,357.826z"/>
	<path d="M255.117,498.487l17.516-10.307c-1.794-3.793-3.002-7.297-3.431-9.834c1.747,1.518,3.313,2.333,3.771,1.884
		c0.563-0.553-0.755-2.797-2.936-5.01c-0.188-0.188-0.37-0.364-0.555-0.541c0.086-0.102,0.188-0.182,0.297-0.241
		c1.68-0.873,5.681,3.439,9.378,9.906l157.464-92.612c0.18,2.018,0.576,3.997,0.98,5.974
		c-50.811,29.197-120.82,69.437-156.642,90.024c3.624,7.302,5.111,13.767,3.319,14.695c-1.768,0.913-6.091-3.885-9.935-10.892
		c-10.117,5.817-16.244,9.335-16.53,9.504c-1.798,1.05-4.5,1.5-5.7,1.5C250.914,502.538,255.117,498.487,255.117,498.487z"/>
	<polygon points="525.06,344.171 451.065,387.844 448.365,395.799 530.016,350.471 	"/>
</g>
</svg>
